<svg width="44" height="37" viewBox="0 0 44 37" fill="none" xmlns="http://www.w3.org/2000/svg">
<rect y="2.12891" width="44" height="2.12903" rx="1.06452" fill="#134D22"/>
<path d="M38.323 0H4.96818C4.18429 0 3.54883 0.635463 3.54883 1.41935V32.985C3.54883 34.2172 5.01119 34.8641 5.92294 34.0353L6.49729 33.5131C7.03866 33.021 7.86544 33.021 8.40682 33.5131L10.4005 35.3256C10.9419 35.8177 11.7687 35.8177 12.31 35.3256L14.3037 33.5131C14.8451 33.021 15.6719 33.021 16.2133 33.5131L18.207 35.3256C18.7483 35.8177 19.5751 35.8177 20.1165 35.3256L22.0095 33.6047C22.5915 33.0755 23.493 33.1207 24.0192 33.7054L25.2577 35.0816C25.8017 35.686 26.7413 35.7107 27.3164 35.1357L28.8033 33.6488C29.3576 33.0945 30.2562 33.0945 30.8105 33.6488L32.234 35.0722C32.8321 35.6704 33.8175 35.6158 34.3459 34.9553L35.2034 33.8835C35.7318 33.2229 36.7184 33.1696 37.3166 33.7678C38.2108 34.6619 39.7424 34.0314 39.7424 32.7669V1.41935C39.7424 0.635467 39.1069 0 38.323 0Z" fill="#485B56"/>
<path d="M19.4626 27.4033C18.7046 27.4033 17.9467 27.2043 17.1887 26.8064C16.4307 26.3895 15.7011 25.7357 15 24.8451L17.1034 20.7236C17.3118 21.0836 17.615 21.4247 18.013 21.7469C18.4299 22.069 18.8657 22.3248 19.3205 22.5143C19.7753 22.7038 20.1638 22.7986 20.4859 22.7986C20.9786 22.7986 21.4429 22.647 21.8787 22.3438C22.3335 22.0406 22.5609 21.6332 22.5609 21.1215C22.5609 20.4583 22.2577 19.8519 21.6513 19.3024C21.0449 18.7528 20.3627 18.2128 19.6047 17.6822C18.8657 17.1516 18.1835 16.5547 17.5582 15.8914C16.9518 15.2093 16.6486 14.4323 16.6486 13.5606C16.6486 12.5753 16.9329 11.6657 17.5013 10.8319C18.0698 9.97918 18.8089 9.24014 19.7184 8.61481C20.628 7.97052 21.5944 7.47783 22.6177 7.13674C23.6599 6.7767 24.6453 6.59668 25.5739 6.59668C26.2371 6.59668 26.853 6.71038 27.4214 6.93777C27.9899 7.14622 28.4447 7.49678 28.7858 7.98947C29.1269 8.48216 29.2974 9.1454 29.2974 9.97918C29.2974 10.1118 29.288 10.2445 29.269 10.3771C29.269 10.5098 29.2595 10.6424 29.2406 10.7751C29.2216 10.9077 29.1932 11.0498 29.1553 11.2014C29.1364 11.3341 29.1174 11.4762 29.0985 11.6278L24.9769 12.8216C25.0148 12.67 25.0433 12.5184 25.0622 12.3668C25.1001 12.2152 25.1191 12.0636 25.1191 11.912C25.1191 11.3435 25.0148 10.9361 24.8064 10.6898C24.6169 10.4245 24.3611 10.2918 24.0389 10.2918C23.8684 10.2918 23.622 10.3866 23.2999 10.5761C22.9778 10.7466 22.684 10.993 22.4188 11.3151C22.1724 11.6183 22.0492 11.9594 22.0492 12.3384C22.0492 12.9637 22.3051 13.4848 22.8167 13.9017C23.3473 14.2997 23.9537 14.7071 24.6359 15.124C24.958 15.3135 25.318 15.6167 25.716 16.0336C26.1139 16.4315 26.455 16.981 26.7393 17.6822C27.0424 18.3644 27.194 19.2455 27.194 20.3256C27.194 21.7279 26.8435 22.9596 26.1423 24.0208C25.4602 25.082 24.5316 25.9158 23.3568 26.5221C22.1819 27.1096 20.8838 27.4033 19.4626 27.4033Z" fill="white"/>
</svg>
